<svg xmlns="http://www.w3.org/2000/svg" viewBox="0 0 344.33 717.65"><defs><style>.cls-1{fill:#f90;}</style></defs><g id="Capa_2" data-name="Capa 2"><g id="Capa_1-2" data-name="Capa 1"><path class="cls-1" d="M170.48,435l12.14,3.44C196,558.57,116.62,683,.24,715.2L0,716.38C105.54,728.54,261.83,652.84,302.64,495l15.69,1.14,5.13-24.86c-27.68-23.27-33.61-97.57,17.7-125.84C353,250.59,330.84,149,291.73,73L208.67,0,188.25,26.62a74,74,0,0,0-35.41,24.15,72,72,0,0,0-15.66,39.47c-2.47,34.79,18,60.62,61.93,76.71,22.65,8.21,29.19,19.75,30.66,33.74C231.09,215.41,227,229.23,214,235l.62,6.27c20.16,5.47,28.46,18.65,29.4,35.6,1.14,20.06-3.72,35.39-21.9,42.9l-.32,5.14c17.59,10.15,24.18,30.56,21,49-3.29,19.19-21.66,35.66-44.9,39.44-7.66,1.23-29.76,1.16-29.76,1.16Zm36.17-295.9c-29.06-2-44.57-22-43.05-46.27,1.69-26.81,19.66-44.29,48.72-42.27,27.9,1.91,44.57,22,42.91,48.62C253.84,123.61,234.75,141,206.65,139.05Z"/></g></g></svg>